# xmcd
#
# Track frame offsets: 
#        150
#        26257
#        52190
#        59608
#        92201
#        93457
#        115908
#        137067
#
# Disc length: 2171 seconds
#
# Revision: 0
# Processed by: cddbd v1.5.1PL0 Copyright (c) Steve Scherf et al.
# Submitted via: ExactAudioCopy v0.95a5
#
DISCID=6e087908
DTITLE=mattip - the king cd
DYEAR=2004
DGENRE=Hip-Hop
TTITLE0=redelete
TTITLE1=redelete (version)
TTITLE2=hush (for lovers)
TTITLE3=purposearchingone
TTITLE4=--
TTITLE5=fgm anthem
TTITLE6=screw the evil - pass me god
TTITLE7=nimetön laulu vaikka rakkaudesta
EXTD=
EXTT0=
EXTT1=
EXTT2=
EXTT3=
EXTT4=
EXTT5=
EXTT6=
EXTT7=
PLAYORDER=
